<svg width="160" height="160" xmlns="http://www.w3.org/2000/svg" xmlns:svg="http://www.w3.org/2000/svg">
 <!-- Created with SVG-edit - http://svg-edit.googlecode.com/ -->

 <g>
  <title>Layer 1</title>
  <path id="svg_10" d="m0.000178,0.000231l0,158.92671l159.72202,0l0,-158.92671l-159.72202,0zm134.58283,145.289396l-109.443655,0l0,-131.641187l109.443655,0l0,131.641187zm-82.819576,-80.05542c8.435444,0 15.277607,-8.230202 15.277607,-18.382214c0,-10.152 -6.842163,-18.382547 -15.277607,-18.382547c-8.444378,0 -15.282085,8.241282 -15.282085,18.382547c0,10.152012 6.837708,18.382214 15.282085,18.382214zm76.907085,16.015442l-29.08847,-34.994896l-40.917709,49.218964l-11.337524,-13.637604l-16.283924,19.587563l0,36.743103l97.627628,0l0,-56.91713z" stroke-linecap="null" stroke-linejoin="null" stroke-dasharray="null" stroke-width="1"/>
 </g>
</svg>
