<svg width="128" height="128" xmlns="http://www.w3.org/2000/svg" xmlns:svg="http://www.w3.org/2000/svg">
 <!-- Created with SVG-edit - http://svg-edit.googlecode.com/ -->

 <g>
  <title>ico</title>
  <path id="svg_1" d="m-0.00023,-0.00136l0,127.90246l127.86462,0l0,-127.90246l-127.86462,0zm107.73977,116.92745l-87.60746,0l0,-105.94333l87.60746,0l0,105.94333zm-66.29836,-64.42756c6.74914,0 12.23354,-6.62371 12.23354,-14.79412c0,-8.17043 -5.48439,-14.79386 -12.23354,-14.79386c-6.75631,0 -12.23383,6.63218 -12.23383,14.79386c0,8.17041 5.47751,14.79412 12.23383,14.79412zm61.566,12.88871l-23.28304,-28.16342l-32.75528,39.61086l-9.08272,-10.97581l-13.02851,15.76421l0,29.57063l78.14955,0l0,-45.80648l-0.00001,0.00002l0,-0.00002l0,0.00001z" fill="#131313"/>
 </g>
</svg>
